<?xml version="1.0" standalone="no"?>
<!DOCTYPE svg PUBLIC "-//W3C//DTD SVG 20010904//EN"
 "http://www.w3.org/TR/2001/REC-SVG-20010904/DTD/svg10.dtd">
<svg version="1.0" xmlns="http://www.w3.org/2000/svg"
 width="180.000000pt" height="180.000000pt" viewBox="0 0 180.000000 180.000000"
 preserveAspectRatio="xMidYMid meet">
<metadata>
Created by potrace 1.14, written by Peter Selinger 2001-2017
</metadata>
<g transform="translate(0.000000,180.000000) scale(0.100000,-0.100000)"
fill="#000000" stroke="none">
<path d="M532 1503 c-11 -10 -28 -39 -37 -65 -17 -45 -20 -48 -55 -48 -59 0
-133 -27 -178 -66 -53 -45 -109 -124 -89 -124 8 0 52 -25 98 -55 45 -30 102
-62 125 -71 l42 -16 -5 -61 c-4 -46 -11 -68 -29 -87 -42 -45 -65 -114 -65
-192 0 -97 39 -178 131 -268 157 -155 393 -215 600 -154 149 44 297 161 358
283 28 56 32 74 32 140 0 82 -21 145 -64 191 -18 19 -25 41 -29 87 l-5 61 45
17 c25 10 75 38 111 62 36 25 78 50 93 55 l27 9 -20 35 c-51 87 -163 154 -258
154 -35 0 -38 3 -55 48 -40 109 -125 109 -125 0 0 -70 -5 -77 -52 -70 -30 4
-49 14 -71 38 -16 19 -59 48 -95 66 -57 28 -79 34 -155 37 l-88 3 26 -37 c14
-21 25 -50 25 -66 0 -24 -5 -29 -32 -33 -18 -3 -49 -8 -69 -11 -43 -6 -49 3
-49 74 0 72 -43 103 -88 64z m48 -65 c0 -24 5 -60 11 -82 10 -37 11 -38 47
-32 20 3 63 9 95 13 51 5 60 9 69 32 5 14 7 38 4 54 -7 34 1 34 74 -3 70 -36
70 -36 70 -10 0 32 34 24 69 -15 17 -20 31 -40 31 -45 0 -9 24 -15 101 -26 45
-6 47 -5 58 27 6 17 11 54 11 80 0 74 24 65 51 -19 l22 -68 58 4 c49 4 68 0
113 -22 49 -24 106 -75 106 -94 0 -18 -161 -113 -209 -124 -41 -9 -50 -15 -45
-27 4 -9 8 -47 9 -86 3 -64 5 -73 37 -106 39 -42 58 -95 58 -166 0 -67 -15
-106 -66 -179 -153 -217 -476 -289 -719 -161 -85 45 -188 145 -225 219 -50
101 -38 217 28 287 31 32 35 43 37 96 1 33 5 72 9 86 7 24 4 26 -46 37 -48 11
-207 106 -208 124 0 19 57 70 106 94 45 22 64 26 113 22 l58 -4 22 68 c26 80
51 93 51 26z"/>
<path d="M760 1118 c-52 -19 -68 -88 -27 -125 52 -49 127 -20 127 50 0 61 -46
95 -100 75z m8 -45 c-2 -10 -10 -18 -18 -18 -8 0 -16 8 -18 18 -2 12 3 17 18
17 15 0 20 -5 18 -17z"/>
<path d="M1011 1119 c-32 -13 -50 -38 -51 -71 0 -40 9 -57 41 -73 39 -21 53
-19 88 11 38 31 41 72 9 108 -28 30 -55 38 -87 25z m3 -60 c-8 -14 -34 -11
-34 4 0 8 3 17 7 20 9 9 34 -13 27 -24z"/>
<path d="M548 579 c-22 -12 -23 -52 -3 -69 13 -10 15 -9 15 9 0 18 6 21 39 21
29 0 47 -7 71 -30 19 -18 30 -36 26 -45 -3 -8 -1 -15 4 -15 5 0 12 10 15 21
10 30 -21 69 -75 97 -49 24 -66 26 -92 11z"/>
<path d="M1175 566 c-33 -14 -85 -69 -85 -89 0 -7 5 -19 10 -27 9 -13 10 -13
10 1 0 54 139 104 140 51 1 -15 3 -14 15 2 43 56 -15 95 -90 62z"/>
</g>
</svg>
